<mxfile host="Electron" modified="2024-02-11T13:11:12.273Z" agent="Mozilla/5.0 (Windows NT 10.0; Win64; x64) AppleWebKit/537.36 (KHTML, like Gecko) draw.io/23.0.2 Chrome/120.0.6099.109 Electron/28.1.0 Safari/537.36" etag="BhFFbwLuQwCAlS3CGGYq" version="23.0.2" type="device">
  <diagram name="Страница — 1" id="DIupMfClCNufccS9qEnb">
    <mxGraphModel dx="819" dy="482" grid="1" gridSize="10" guides="1" tooltips="1" connect="1" arrows="1" fold="1" page="1" pageScale="1" pageWidth="827" pageHeight="1169" math="0" shadow="0">
      <root>
        <mxCell id="0" />
        <mxCell id="1" parent="0" />
        <mxCell id="iXV5zaEV-4Wkvnh-FJij-8" value="n = 5 (8)" style="rounded=0;whiteSpace=wrap;html=1;" vertex="1" parent="1">
          <mxGeometry x="380" y="30" width="50" height="20" as="geometry" />
        </mxCell>
        <mxCell id="iXV5zaEV-4Wkvnh-FJij-9" value="n = 4 (5)" style="rounded=0;whiteSpace=wrap;html=1;" vertex="1" parent="1">
          <mxGeometry x="344" y="70" width="56" height="20" as="geometry" />
        </mxCell>
        <mxCell id="iXV5zaEV-4Wkvnh-FJij-11" value="" style="endArrow=none;html=1;rounded=0;" edge="1" parent="1">
          <mxGeometry width="50" height="50" relative="1" as="geometry">
            <mxPoint x="360" y="40" as="sourcePoint" />
            <mxPoint x="380" y="39.71" as="targetPoint" />
          </mxGeometry>
        </mxCell>
        <mxCell id="iXV5zaEV-4Wkvnh-FJij-12" value="" style="endArrow=classic;html=1;rounded=0;" edge="1" parent="1">
          <mxGeometry width="50" height="50" relative="1" as="geometry">
            <mxPoint x="360" y="40" as="sourcePoint" />
            <mxPoint x="360" y="70" as="targetPoint" />
          </mxGeometry>
        </mxCell>
        <mxCell id="iXV5zaEV-4Wkvnh-FJij-13" value="n = 3 (3)" style="rounded=0;whiteSpace=wrap;html=1;" vertex="1" parent="1">
          <mxGeometry x="300" y="120" width="50" height="20" as="geometry" />
        </mxCell>
        <mxCell id="iXV5zaEV-4Wkvnh-FJij-14" value="" style="endArrow=none;html=1;rounded=0;" edge="1" parent="1">
          <mxGeometry width="50" height="50" relative="1" as="geometry">
            <mxPoint x="320" y="80" as="sourcePoint" />
            <mxPoint x="344" y="79.86" as="targetPoint" />
          </mxGeometry>
        </mxCell>
        <mxCell id="iXV5zaEV-4Wkvnh-FJij-15" value="" style="endArrow=classic;html=1;rounded=0;" edge="1" parent="1">
          <mxGeometry width="50" height="50" relative="1" as="geometry">
            <mxPoint x="320" y="80" as="sourcePoint" />
            <mxPoint x="320" y="120" as="targetPoint" />
          </mxGeometry>
        </mxCell>
        <mxCell id="iXV5zaEV-4Wkvnh-FJij-16" value="n = 2 (2)" style="rounded=0;whiteSpace=wrap;html=1;" vertex="1" parent="1">
          <mxGeometry x="255" y="160" width="56" height="20" as="geometry" />
        </mxCell>
        <mxCell id="iXV5zaEV-4Wkvnh-FJij-17" value="" style="endArrow=none;html=1;rounded=0;" edge="1" parent="1">
          <mxGeometry width="50" height="50" relative="1" as="geometry">
            <mxPoint x="280" y="130" as="sourcePoint" />
            <mxPoint x="300" y="129.8" as="targetPoint" />
          </mxGeometry>
        </mxCell>
        <mxCell id="iXV5zaEV-4Wkvnh-FJij-18" value="" style="endArrow=classic;html=1;rounded=0;entryX=0.444;entryY=0;entryDx=0;entryDy=0;entryPerimeter=0;" edge="1" parent="1" target="iXV5zaEV-4Wkvnh-FJij-16">
          <mxGeometry width="50" height="50" relative="1" as="geometry">
            <mxPoint x="280" y="130" as="sourcePoint" />
            <mxPoint x="280" y="150" as="targetPoint" />
          </mxGeometry>
        </mxCell>
        <mxCell id="iXV5zaEV-4Wkvnh-FJij-19" value="n = 1 (1)" style="rounded=0;whiteSpace=wrap;html=1;" vertex="1" parent="1">
          <mxGeometry x="214" y="200" width="50" height="20" as="geometry" />
        </mxCell>
        <mxCell id="iXV5zaEV-4Wkvnh-FJij-20" value="" style="endArrow=none;html=1;rounded=0;" edge="1" parent="1">
          <mxGeometry width="50" height="50" relative="1" as="geometry">
            <mxPoint x="240" y="170" as="sourcePoint" />
            <mxPoint x="255" y="170" as="targetPoint" />
          </mxGeometry>
        </mxCell>
        <mxCell id="iXV5zaEV-4Wkvnh-FJij-21" value="" style="endArrow=classic;html=1;rounded=0;" edge="1" parent="1">
          <mxGeometry width="50" height="50" relative="1" as="geometry">
            <mxPoint x="239.76" y="170" as="sourcePoint" />
            <mxPoint x="240" y="200" as="targetPoint" />
          </mxGeometry>
        </mxCell>
        <mxCell id="iXV5zaEV-4Wkvnh-FJij-22" value="n = 0 (1)" style="rounded=0;whiteSpace=wrap;html=1;" vertex="1" parent="1">
          <mxGeometry x="294" y="200" width="50" height="20" as="geometry" />
        </mxCell>
        <mxCell id="iXV5zaEV-4Wkvnh-FJij-24" value="" style="endArrow=none;html=1;rounded=0;" edge="1" parent="1">
          <mxGeometry width="50" height="50" relative="1" as="geometry">
            <mxPoint x="310" y="170" as="sourcePoint" />
            <mxPoint x="320" y="170" as="targetPoint" />
          </mxGeometry>
        </mxCell>
        <mxCell id="iXV5zaEV-4Wkvnh-FJij-25" value="" style="endArrow=classic;html=1;rounded=0;" edge="1" parent="1">
          <mxGeometry width="50" height="50" relative="1" as="geometry">
            <mxPoint x="318.76" y="170" as="sourcePoint" />
            <mxPoint x="319" y="200" as="targetPoint" />
          </mxGeometry>
        </mxCell>
        <mxCell id="iXV5zaEV-4Wkvnh-FJij-27" value="" style="endArrow=none;html=1;rounded=0;" edge="1" parent="1">
          <mxGeometry width="50" height="50" relative="1" as="geometry">
            <mxPoint x="350" y="130" as="sourcePoint" />
            <mxPoint x="360" y="130" as="targetPoint" />
          </mxGeometry>
        </mxCell>
        <mxCell id="iXV5zaEV-4Wkvnh-FJij-28" value="n = 1 (1)" style="rounded=0;whiteSpace=wrap;html=1;" vertex="1" parent="1">
          <mxGeometry x="331" y="161" width="56" height="20" as="geometry" />
        </mxCell>
        <mxCell id="iXV5zaEV-4Wkvnh-FJij-29" value="" style="endArrow=classic;html=1;rounded=0;" edge="1" parent="1">
          <mxGeometry width="50" height="50" relative="1" as="geometry">
            <mxPoint x="358.8" y="130" as="sourcePoint" />
            <mxPoint x="359" y="160" as="targetPoint" />
          </mxGeometry>
        </mxCell>
        <mxCell id="iXV5zaEV-4Wkvnh-FJij-30" value="" style="endArrow=none;html=1;rounded=0;exitX=1;exitY=0.5;exitDx=0;exitDy=0;" edge="1" parent="1" source="iXV5zaEV-4Wkvnh-FJij-9">
          <mxGeometry width="50" height="50" relative="1" as="geometry">
            <mxPoint x="380" y="79.75999999999999" as="sourcePoint" />
            <mxPoint x="480" y="80" as="targetPoint" />
          </mxGeometry>
        </mxCell>
        <mxCell id="iXV5zaEV-4Wkvnh-FJij-31" value="" style="endArrow=classic;html=1;rounded=0;" edge="1" parent="1">
          <mxGeometry width="50" height="50" relative="1" as="geometry">
            <mxPoint x="480" y="80" as="sourcePoint" />
            <mxPoint x="480" y="120" as="targetPoint" />
          </mxGeometry>
        </mxCell>
        <mxCell id="iXV5zaEV-4Wkvnh-FJij-32" value="n = 2 (2)" style="rounded=0;whiteSpace=wrap;html=1;" vertex="1" parent="1">
          <mxGeometry x="450" y="120" width="50" height="20" as="geometry" />
        </mxCell>
        <mxCell id="iXV5zaEV-4Wkvnh-FJij-33" value="" style="endArrow=none;html=1;rounded=0;" edge="1" parent="1">
          <mxGeometry width="50" height="50" relative="1" as="geometry">
            <mxPoint x="440" y="130" as="sourcePoint" />
            <mxPoint x="450" y="129.76" as="targetPoint" />
          </mxGeometry>
        </mxCell>
        <mxCell id="iXV5zaEV-4Wkvnh-FJij-34" value="" style="endArrow=classic;html=1;rounded=0;" edge="1" parent="1">
          <mxGeometry width="50" height="50" relative="1" as="geometry">
            <mxPoint x="440" y="130" as="sourcePoint" />
            <mxPoint x="440" y="160" as="targetPoint" />
          </mxGeometry>
        </mxCell>
        <mxCell id="iXV5zaEV-4Wkvnh-FJij-35" value="n = 1 (1)" style="rounded=0;whiteSpace=wrap;html=1;" vertex="1" parent="1">
          <mxGeometry x="414" y="161" width="56" height="19" as="geometry" />
        </mxCell>
        <mxCell id="iXV5zaEV-4Wkvnh-FJij-36" value="" style="endArrow=none;html=1;rounded=0;" edge="1" parent="1">
          <mxGeometry width="50" height="50" relative="1" as="geometry">
            <mxPoint x="500" y="129.76" as="sourcePoint" />
            <mxPoint x="520" y="130" as="targetPoint" />
          </mxGeometry>
        </mxCell>
        <mxCell id="iXV5zaEV-4Wkvnh-FJij-37" value="" style="endArrow=classic;html=1;rounded=0;" edge="1" parent="1">
          <mxGeometry width="50" height="50" relative="1" as="geometry">
            <mxPoint x="520" y="130" as="sourcePoint" />
            <mxPoint x="520" y="160" as="targetPoint" />
          </mxGeometry>
        </mxCell>
        <mxCell id="iXV5zaEV-4Wkvnh-FJij-38" value="n = 0 (1)" style="rounded=0;whiteSpace=wrap;html=1;" vertex="1" parent="1">
          <mxGeometry x="500" y="160.5" width="50" height="19" as="geometry" />
        </mxCell>
        <mxCell id="iXV5zaEV-4Wkvnh-FJij-39" value="" style="endArrow=none;html=1;rounded=0;" edge="1" parent="1">
          <mxGeometry width="50" height="50" relative="1" as="geometry">
            <mxPoint x="430" y="39.760000000000005" as="sourcePoint" />
            <mxPoint x="680" y="40" as="targetPoint" />
          </mxGeometry>
        </mxCell>
        <mxCell id="iXV5zaEV-4Wkvnh-FJij-40" value="" style="endArrow=classic;html=1;rounded=0;" edge="1" parent="1">
          <mxGeometry width="50" height="50" relative="1" as="geometry">
            <mxPoint x="680" y="40" as="sourcePoint" />
            <mxPoint x="680" y="80" as="targetPoint" />
          </mxGeometry>
        </mxCell>
        <mxCell id="iXV5zaEV-4Wkvnh-FJij-41" value="n = 3 (3)" style="rounded=0;whiteSpace=wrap;html=1;" vertex="1" parent="1">
          <mxGeometry x="660" y="80" width="50" height="20" as="geometry" />
        </mxCell>
        <mxCell id="iXV5zaEV-4Wkvnh-FJij-42" value="n = 2 (2)" style="rounded=0;whiteSpace=wrap;html=1;" vertex="1" parent="1">
          <mxGeometry x="605" y="121" width="55" height="19" as="geometry" />
        </mxCell>
        <mxCell id="iXV5zaEV-4Wkvnh-FJij-43" value="" style="endArrow=none;html=1;rounded=0;" edge="1" parent="1">
          <mxGeometry width="50" height="50" relative="1" as="geometry">
            <mxPoint x="640" y="89.93" as="sourcePoint" />
            <mxPoint x="660" y="89.93" as="targetPoint" />
          </mxGeometry>
        </mxCell>
        <mxCell id="iXV5zaEV-4Wkvnh-FJij-44" value="" style="endArrow=classic;html=1;rounded=0;" edge="1" parent="1">
          <mxGeometry width="50" height="50" relative="1" as="geometry">
            <mxPoint x="640" y="91" as="sourcePoint" />
            <mxPoint x="640" y="121" as="targetPoint" />
          </mxGeometry>
        </mxCell>
        <mxCell id="iXV5zaEV-4Wkvnh-FJij-45" value="" style="endArrow=none;html=1;rounded=0;" edge="1" parent="1">
          <mxGeometry width="50" height="50" relative="1" as="geometry">
            <mxPoint x="600" y="130" as="sourcePoint" />
            <mxPoint x="605" y="130.26" as="targetPoint" />
          </mxGeometry>
        </mxCell>
        <mxCell id="iXV5zaEV-4Wkvnh-FJij-46" value="" style="endArrow=classic;html=1;rounded=0;" edge="1" parent="1">
          <mxGeometry width="50" height="50" relative="1" as="geometry">
            <mxPoint x="600" y="130" as="sourcePoint" />
            <mxPoint x="600" y="160" as="targetPoint" />
          </mxGeometry>
        </mxCell>
        <mxCell id="iXV5zaEV-4Wkvnh-FJij-47" value="n = 1 (1)" style="rounded=0;whiteSpace=wrap;html=1;" vertex="1" parent="1">
          <mxGeometry x="580" y="161" width="50" height="20" as="geometry" />
        </mxCell>
        <mxCell id="iXV5zaEV-4Wkvnh-FJij-48" value="n = 0 (1)" style="rounded=0;whiteSpace=wrap;html=1;" vertex="1" parent="1">
          <mxGeometry x="650" y="161" width="50" height="20" as="geometry" />
        </mxCell>
        <mxCell id="iXV5zaEV-4Wkvnh-FJij-49" value="" style="endArrow=none;html=1;rounded=0;" edge="1" parent="1">
          <mxGeometry width="50" height="50" relative="1" as="geometry">
            <mxPoint x="660" y="130.36" as="sourcePoint" />
            <mxPoint x="680" y="130" as="targetPoint" />
          </mxGeometry>
        </mxCell>
        <mxCell id="iXV5zaEV-4Wkvnh-FJij-50" value="" style="endArrow=classic;html=1;rounded=0;" edge="1" parent="1">
          <mxGeometry width="50" height="50" relative="1" as="geometry">
            <mxPoint x="679.86" y="130" as="sourcePoint" />
            <mxPoint x="679.86" y="160" as="targetPoint" />
          </mxGeometry>
        </mxCell>
        <mxCell id="iXV5zaEV-4Wkvnh-FJij-51" value="" style="endArrow=none;html=1;rounded=0;" edge="1" parent="1">
          <mxGeometry width="50" height="50" relative="1" as="geometry">
            <mxPoint x="710" y="89.8" as="sourcePoint" />
            <mxPoint x="760" y="90" as="targetPoint" />
          </mxGeometry>
        </mxCell>
        <mxCell id="iXV5zaEV-4Wkvnh-FJij-52" value="" style="endArrow=classic;html=1;rounded=0;" edge="1" parent="1">
          <mxGeometry width="50" height="50" relative="1" as="geometry">
            <mxPoint x="760" y="90" as="sourcePoint" />
            <mxPoint x="760" y="120" as="targetPoint" />
          </mxGeometry>
        </mxCell>
        <mxCell id="iXV5zaEV-4Wkvnh-FJij-53" value="n = 1 (1)" style="rounded=0;whiteSpace=wrap;html=1;" vertex="1" parent="1">
          <mxGeometry x="740" y="120" width="50" height="20" as="geometry" />
        </mxCell>
      </root>
    </mxGraphModel>
  </diagram>
</mxfile>
